solid OpenSCAD_Model
  facet normal -1 0 0
    outer loop
      vertex 0 0 0
      vertex 0 45 3
      vertex 0 45 0
    endloop
  endfacet
  facet normal -1 -0 0
    outer loop
      vertex 0 45 3
      vertex 0 0 0
      vertex 0 0 3
    endloop
  endfacet
  facet normal 1 -0 0
    outer loop
      vertex 45 0 3
      vertex 45 12 0
      vertex 45 12 3
    endloop
  endfacet
  facet normal 1 0 0
    outer loop
      vertex 45 12 0
      vertex 45 0 3
      vertex 45 0 0
    endloop
  endfacet
  facet normal 0 0 -1
    outer loop
      vertex 45 0 0
      vertex 12 12 0
      vertex 45 12 0
    endloop
  endfacet
  facet normal 0 0 -1
    outer loop
      vertex 0 0 0
      vertex 12 12 0
      vertex 45 0 0
    endloop
  endfacet
  facet normal 0 0 -1
    outer loop
      vertex 0 45 0
      vertex 12 12 0
      vertex 0 0 0
    endloop
  endfacet
  facet normal 0 0 -1
    outer loop
      vertex 12 12 0
      vertex 0 45 0
      vertex 12 45 0
    endloop
  endfacet
  facet normal 0 -1 0
    outer loop
      vertex 0 0 0
      vertex 45 0 3
      vertex 0 0 3
    endloop
  endfacet
  facet normal 0 -1 -0
    outer loop
      vertex 45 0 3
      vertex 0 0 0
      vertex 45 0 0
    endloop
  endfacet
  facet normal 0 1 -0
    outer loop
      vertex 45 12 0
      vertex 12 12 3
      vertex 45 12 3
    endloop
  endfacet
  facet normal 0 1 0
    outer loop
      vertex 12 12 3
      vertex 45 12 0
      vertex 12 12 0
    endloop
  endfacet
  facet normal 1 -0 0
    outer loop
      vertex 12 12 3
      vertex 12 45 0
      vertex 12 45 3
    endloop
  endfacet
  facet normal 1 0 0
    outer loop
      vertex 12 45 0
      vertex 12 12 3
      vertex 12 12 0
    endloop
  endfacet
  facet normal 0 1 -0
    outer loop
      vertex 12 45 0
      vertex 0 45 3
      vertex 12 45 3
    endloop
  endfacet
  facet normal 0 1 0
    outer loop
      vertex 0 45 3
      vertex 12 45 0
      vertex 0 45 0
    endloop
  endfacet
  facet normal 0 0 1
    outer loop
      vertex 12 45 3
      vertex 0 45 3
      vertex 12 12 3
    endloop
  endfacet
  facet normal -0 0 1
    outer loop
      vertex 12 12 3
      vertex 45 0 3
      vertex 45 12 3
    endloop
  endfacet
  facet normal 0 0 1
    outer loop
      vertex 12 12 3
      vertex 0 0 3
      vertex 45 0 3
    endloop
  endfacet
  facet normal 0 0 1
    outer loop
      vertex 0 0 3
      vertex 12 12 3
      vertex 0 45 3
    endloop
  endfacet
endsolid OpenSCAD_Model
