<svg xmlns="http://www.w3.org/2000/svg" viewBox="0 0 16 16"><rect width="16" height="16" rx="1" fill="#08090A"/><rect x="3" y="1" width="1.6" height="1.6" fill="#FFAA00"/><rect x="11" y="1" width="1.6" height="1.6" fill="#FFAA00"/><rect x="3" y="3" width="1.6" height="1.6" fill="#FFAA00"/><rect x="11" y="3" width="1.6" height="1.6" fill="#FFAA00"/><rect x="3" y="5" width="1.6" height="1.6" fill="#FFAA00"/><rect x="11" y="5" width="1.6" height="1.6" fill="#FFAA00"/><rect x="3" y="7" width="1.6" height="1.6" fill="#FFAA00"/><rect x="7" y="7" width="1.6" height="1.6" fill="#FFAA00"/><rect x="11" y="7" width="1.6" height="1.6" fill="#FFAA00"/><rect x="3" y="9" width="1.6" height="1.6" fill="#FFAA00"/><rect x="7" y="9" width="1.6" height="1.6" fill="#FFAA00"/><rect x="11" y="9" width="1.6" height="1.6" fill="#FFAA00"/><rect x="3" y="11" width="1.6" height="1.6" fill="#FFAA00"/><rect x="5" y="11" width="1.6" height="1.6" fill="#FFAA00"/><rect x="9" y="11" width="1.6" height="1.6" fill="#FFAA00"/><rect x="11" y="11" width="1.6" height="1.6" fill="#FFAA00"/><rect x="3" y="13" width="1.6" height="1.6" fill="#FFAA00"/><rect x="11" y="13" width="1.6" height="1.6" fill="#FFAA00"/></svg>
